<svg data-icon-name="bag-alt" data-style="line" icon_origin_id="4506" viewBox="0 0 24 24" xmlns="http://www.w3.org/2000/svg" id="bag-alt" class="icon line" width="48" height="48"><title style="stroke-width: 1px; stroke: rgb(250, 189, 47);">bag alt</title><path style="fill: rgb(202, 162, 237); stroke-width: 1px; stroke: rgb(250, 189, 47);" d="M21,17H3v2.74A1.25,1.25,0,0,0,4.26,21H19.74A1.25,1.25,0,0,0,21,19.74Z" id="tertiary-fill"></path><path style="fill: none; stroke: rgb(250, 189, 47); stroke-linecap: round; stroke-linejoin: round; stroke-width: 1px;" d="M19.88,21H4.12a1,1,0,0,1-1-1.11l1.78-16A1,1,0,0,1,5.9,3H18.1a1,1,0,0,1,1,.89l1.78,16A1,1,0,0,1,19.88,21Z" id="primary-stroke"></path><path style="fill: none; stroke: rgb(250, 189, 47); stroke-linecap: round; stroke-linejoin: round; stroke-width: 1px;" d="M15,7V9a3,3,0,0,1-3,3h0A3,3,0,0,1,9,9V7" id="secondary-stroke"></path></svg>